<svg xmlns="http://www.w3.org/2000/svg" viewBox="0 0 15 20" width="15" height="20">
	<defs>
		<clipPath clipPathUnits="userSpaceOnUse" id="cp1">
			<path d="M-117 -357L1097 -357L1097 398L-117 398Z" />
		</clipPath>
	</defs>
	<style>
		tspan { white-space:pre }
		.shp0 { fill: #000000 } 
	</style>
	<g id="test" clip-path="url(#cp1)">
		<g id="cards">
			<g id="card-green copy 3">
				<g id="card copy 6">
					<g id="card">
						<g id="status">
							<path id="Shape" fill-rule="evenodd" class="shp0" d="M8 5.75L8 8L11 5L8 2L8 4.25C4.68 4.25 2 6.93 2 10.25C2 11.43 2.34 12.52 2.93 13.44L4.02 12.35C3.69 11.73 3.5 11.01 3.5 10.25C3.5 7.77 5.52 5.75 8 5.75ZM11.97 8.15C12.3 8.78 12.5 9.49 12.5 10.25C12.5 12.73 10.48 14.75 8 14.75L8 12.5L5 15.5L8 18.5L8 16.25C11.31 16.25 14 13.56 14 10.25C14 9.07 13.65 7.98 13.07 7.05L11.97 8.15Z" />
						</g>
					</g>
				</g>
			</g>
		</g>
	</g>
</svg>