<svg xmlns="http://www.w3.org/2000/svg" viewBox="0 0 42 40" width="42" height="40">
	<defs>
		<clipPath clipPathUnits="userSpaceOnUse" id="cp1">
			<path d="M-1073 -59L141 -59L141 696L-1073 696Z" />
		</clipPath>
	</defs>
	<style>
		tspan { white-space:pre }
		.shp0 { fill: #58329e } 
	</style>
	<g id="test" clip-path="url(#cp1)">
		<g id="Dashboard">
			<g id="rating">
				<path id="-e-star copy 2" class="shp0" d="M38.12 14.14L28.33 13.07C27.73 12.99 27.25 12.64 27.01 12.12L22.97 3.25C22.21 1.58 19.85 1.58 19.09 3.25L15.02 12.12C14.78 12.64 14.26 13.03 13.7 13.07L3.9 14.14C2.06 14.34 1.35 16.56 2.7 17.79L9.98 24.36C10.42 24.76 10.62 25.35 10.5 25.91L8.5 35.45C8.14 37.24 10.06 38.62 11.66 37.71L20.21 32.88C20.73 32.6 21.33 32.6 21.85 32.88L30.41 37.71C32.01 38.62 33.93 37.24 33.57 35.45L31.57 25.91C31.41 25.35 31.61 24.76 32.05 24.36L39.32 17.79C40.64 16.6 39.92 14.34 38.12 14.14Z" />
			</g>
		</g>
	</g>
</svg>